<?xml version="1.0" encoding="UTF-8" standalone="no"?>
<!-- Created with Inkscape (http://www.inkscape.org/) -->

<svg
   xmlns:dc="http://purl.org/dc/elements/1.1/"
   xmlns:cc="http://creativecommons.org/ns#"
   xmlns:rdf="http://www.w3.org/1999/02/22-rdf-syntax-ns#"
   xmlns:svg="http://www.w3.org/2000/svg"
   xmlns="http://www.w3.org/2000/svg"
   xmlns:sodipodi="http://sodipodi.sourceforge.net/DTD/sodipodi-0.dtd"
   xmlns:inkscape="http://www.inkscape.org/namespaces/inkscape"
   width="48"
   height="48"
   id="svg2"
   version="1.1"
   inkscape:version="0.92.2 (5c3e80d, 2017-08-06)"
   sodipodi:docname="IDX Icon.svg"
   inkscape:export-filename="E:\WIME Editor Graphic Files\Program Icons\RAW Export Icon.png"
   inkscape:export-xdpi="96.30294"
   inkscape:export-ydpi="96.30294">
  <defs
     id="defs4">
    <path
       id="path-1"
       d="M0,11 C0,4.92486745 4.92486745,0 11,0 C17.0751325,0 22,4.92486745 22,11 C22,17.0751325 17.0751325,22 11,22 C4.92486745,22 0,17.0751325 0,11 L0,11 Z M21,11 C21,5.47715225 16.5228478,1 11,1 C5.47715225,1 1,5.47715225 1,11 C1,16.5228478 5.47715225,21 11,21 C16.5228478,21 21,16.5228478 21,11 L21,11 Z M11.25,7.5 C11.940356,7.5 12.5,6.94035595 12.5,6.25 C12.5,5.55964405 11.940356,5 11.25,5 C10.559644,5 10,5.55964405 10,6.25 C10,6.94035595 10.559644,7.5 11.25,7.5 L11.25,7.5 Z M8.5,8.5 L8.5,9.5 L10,9.5 L10,16.5 L8.5,16.5 L8.5,17.5 L14,17.5 L14,16.5 L12.5,16.5 L12.5,8.5 L8.5,8.5 L8.5,8.5 Z" />
  </defs>
  <sodipodi:namedview
     id="base"
     pagecolor="#ffffff"
     bordercolor="#666666"
     borderopacity="1.0"
     inkscape:pageopacity="0.0"
     inkscape:pageshadow="2"
     inkscape:zoom="5.89868"
     inkscape:cx="28.879499"
     inkscape:cy="9.8459639"
     inkscape:document-units="px"
     inkscape:current-layer="layer1"
     showgrid="false"
     inkscape:window-width="1920"
     inkscape:window-height="1017"
     inkscape:window-x="1672"
     inkscape:window-y="-8"
     inkscape:window-maximized="1" />
  <metadata
     id="metadata7">
    <rdf:RDF>
      <cc:Work
         rdf:about="">
        <dc:format>image/svg+xml</dc:format>
        <dc:type
           rdf:resource="http://purl.org/dc/dcmitype/StillImage" />
        <dc:title></dc:title>
      </cc:Work>
    </rdf:RDF>
  </metadata>
  <g
     inkscape:label="Layer 1"
     inkscape:groupmode="layer"
     id="layer1"
     transform="translate(0,-1004.3622)">
    <g
       style="fill:#157efb;stroke:none"
       id="icon-76-document-file-html"
       transform="matrix(1.4082084,0,0,1.6718828,2.6591493,1001.16)">
      <path
         inkscape:connector-curvature="0"
         d="m 19,26 v 2.002578 C 19,29.109075 18.105724,30 17.002578,30 H 1.9974219 C 0.89092539,30 0,29.101288 0,27.99267 V 5.0073299 C 0,3.8983383 0.8992496,3 2.0085302,3 H 12 V 9.0018986 C 12,10.113294 12.898081,11 14.005919,11 H 19 v 2 H 6.0068483 C 4.3462119,13 3,14.342264 3,15.998786 v 7.002428 C 3,24.657398 4.3359915,26 6.0068483,26 H 19 v 0 z M 13,3 V 8.9970707 C 13,9.5509732 13.450975,10 13.990778,10 H 19 L 13,3 Z M 6.0073299,14 C 4.8987122,14 4,14.900176 4,15.992017 v 7.015966 C 4,24.108144 4.8983383,25 6.0073299,25 H 28.99267 C 30.101288,25 31,24.099824 31,23.007983 V 15.992017 C 31,14.891856 30.101662,14 28.99267,14 H 6.0073299 Z M 29,22 v 1 h -5 v -7 h 1 v 6 h 4 z M 14,17 v 6 h 1 v -6 h 2 v -1 h -5 v 1 h 2 z m -4,2 v -3 h 1 v 7 H 10 V 20 H 7 v 3 H 6 v -7 h 1 v 3 h 3 z M 20.5,19 19,16 H 18.5 18 v 7 h 1 v -5 l 1,2 h 0.5 0.5 l 1,-2 v 5 h 1 V 16 H 22.5 22 l -1.5,3 z"
         id="document-file-html"
         style="fill:#157efb;fill-opacity:1" />
      <rect
         style="fill:#157efb;fill-opacity:1;stroke:none"
         id="rect3094"
         width="33.451065"
         height="13.189277"
         x="10.513191"
         y="22.386044"
         transform="matrix(0.70610927,0,0,0.60427996,-1.87765,1.9041466)" />
      <text
         xml:space="preserve"
         style="font-style:normal;font-weight:normal;line-height:0%;font-family:sans-serif;letter-spacing:0px;word-spacing:0px;fill:#000000;fill-opacity:1;stroke:none"
         x="5.4824047"
         y="24.95829"
         id="text3864"
         transform="scale(1.1307023,0.88440609)"><tspan
           sodipodi:role="line"
           id="tspan3866"
           x="5.4824047"
           y="24.95829"
           style="font-style:normal;font-variant:normal;font-weight:normal;font-stretch:normal;font-size:8.44639969px;line-height:1.25;font-family:sans-serif;-inkscape-font-specification:Sans;fill:#ffffff">IDX</tspan></text>
    </g>
  </g>
</svg>
